<svg xmlns="http://www.w3.org/2000/svg" width="70" height="91" viewBox="0 0 70 91" fill="none">
    <path d="M1.10236 8.26771C1.10236 4.31039 4.3104 1.10236 8.26772 1.10236H51.3838C53.6167 1.10236 55.7219 2.1433 57.0775 3.91761L67.426 17.4625C68.3805 18.7118 68.8976 20.2404 68.8976 21.8126V82.126C68.8976 86.0833 65.6896 89.2913 61.7323 89.2913H8.26772C4.3104 89.2913 1.10236 86.0833 1.10236 82.126V8.26771Z" fill="#F5FBF7" stroke="#446278" stroke-width="2.20472"/>
    <path d="M6.38532 1.65351H51.1531C52.2495 1.65351 53.2747 2.19695 53.8901 3.1044L61.7237 14.6554C62.0952 15.2032 62.2938 15.8498 62.2938 16.5116V81.0236C62.2938 82.85 60.8132 84.3307 58.9867 84.3307H9.69241C7.86595 84.3307 6.38532 82.85 6.38532 81.0236V1.65351Z" fill="#CDE8E0" stroke="#446278" stroke-width="2.20472"/>
    <path d="M14.3306 38.0315H39.4249M14.3306 44.7093H39.4249M14.3306 50.4331H34.362H54.3935M44.4878 44.7093H54.3935M29.2991 50.4331H49.3306M44.4878 38.0315H54.3935M14.3306 54.8849H31.5004M14.3306 59.0188H34.5821M34.5821 54.8849H54.3935M14.3306 62.8346H54.3935" stroke="#026B5D" stroke-width="1.65354" stroke-linecap="round"/>
    <path d="M43.5847 76.6141H55.9118" stroke="#446278" stroke-width="1.65354" stroke-linecap="round"/>
    <rect x="14.6" y="8.6" width="16.8" height="16.8" rx="1.8" fill="#9FF2E0"/>
    <rect x="14.6" y="8.6" width="16.8" height="16.8" rx="1.8" stroke="#446278" stroke-width="1.2"/>
    <path d="M28.8694 17.2328C28.8071 17.1237 28.7237 17.0281 28.624 16.9516C28.5243 16.8752 28.4103 16.8194 28.2888 16.7876C27.9982 16.7123 27.6996 16.6728 27.3994 16.67C27.5085 15.9905 27.4588 15.295 27.2543 14.6378C27.1806 14.407 27.0236 14.2119 26.814 14.0905C26.6043 13.9692 26.3569 13.9302 26.1201 13.9812C25.6738 14.0797 25.2461 14.2491 24.8534 14.483C24.5376 13.903 24.1041 13.3954 23.5808 12.9927C23.4131 12.8676 23.2094 12.8 23.0002 12.8C22.7909 12.8 22.5873 12.8676 22.4195 12.9927C21.8962 13.3954 21.4628 13.903 21.147 14.483C20.7547 14.2491 20.3275 14.0795 19.8817 13.9807C19.6448 13.9297 19.3974 13.9688 19.1877 14.0902C18.978 14.2117 18.8211 14.4069 18.7475 14.6378C18.543 15.295 18.4933 15.9905 18.6023 16.67C18.3017 16.6727 18.0026 16.7122 17.7115 16.7876C17.59 16.8194 17.476 16.8752 17.3763 16.9516C17.2766 17.0281 17.1932 17.1237 17.1309 17.2328C17.0665 17.3437 17.0248 17.4663 17.0082 17.5935C16.9915 17.7206 17.0004 17.8498 17.0341 17.9736C17.2059 18.6103 17.7309 19.82 19.3151 20.7664C20.8789 21.7022 22.2628 21.7022 23.004 21.7022C23.7453 21.7022 25.1214 21.7022 26.6848 20.7664C28.2689 19.82 28.7939 18.6103 28.9657 17.9736C28.9995 17.8499 29.0085 17.7207 28.9919 17.5935C28.9754 17.4663 28.9338 17.3437 28.8694 17.2328ZM19.9112 19.7692C18.8327 19.1247 18.3943 18.3597 18.2177 17.8652C18.4503 17.828 18.6867 17.8205 18.9212 17.8429C19.038 18.138 19.1762 18.4241 19.3349 18.6989C19.6008 19.1585 19.9188 19.5858 20.2828 19.9724C20.1599 19.9119 20.036 19.8442 19.9112 19.7692ZM20.6292 18.5702C20.5276 18.425 20.4299 18.2799 20.3389 18.1207C19.5826 16.8007 19.6538 15.7478 19.8067 15.1585C20.1239 15.2516 20.4256 15.3913 20.7018 15.5731C20.5542 16.1063 20.4809 16.6573 20.4841 17.2105C20.482 17.6677 20.5307 18.1237 20.6292 18.5702ZM23.0002 20.4089C22.5298 20.0184 21.6453 19.0405 21.6453 17.2091C21.6453 15.3985 22.5163 14.4172 23.0002 14.0117C23.484 14.4172 24.355 15.3985 24.355 17.2091C24.355 19.041 23.4705 20.0198 23.0002 20.4103V20.4089ZM25.3711 18.5702C25.4697 18.1237 25.5184 17.6677 25.5163 17.2105C25.5194 16.6573 25.4461 16.1063 25.2985 15.5731C25.5747 15.3912 25.8764 15.2513 26.1937 15.158C26.3451 15.7478 26.4162 16.8031 25.6585 18.1207C25.5695 18.2779 25.4717 18.4274 25.3711 18.5702ZM26.0901 19.7692C25.9662 19.8432 25.8438 19.91 25.7233 19.9705C26.0858 19.5843 26.4026 19.1576 26.6674 18.6989C26.826 18.4241 26.9643 18.138 27.0811 17.8429C27.3156 17.8205 27.552 17.828 27.7846 17.8652C27.6061 18.3597 27.1686 19.1247 26.0901 19.7692Z" fill="#446278"/>
    <path d="M52.3899 18.189V2.20472C52.3899 1.5959 52.8834 1.10236 53.4923 1.10236H53.9532C54.287 1.10236 54.6028 1.25356 54.812 1.51357L67.676 17.4978C68.2565 18.2191 67.7431 19.2913 66.8173 19.2913H53.4923C52.8834 19.2913 52.3899 18.7978 52.3899 18.189Z" fill="#446278" stroke="#446278" stroke-width="0.551181"/>
</svg>