<svg width="303" height="290" viewBox="0 0 303 290" fill="none" xmlns="http://www.w3.org/2000/svg">
<path d="M211.933 3.26381C242.912 5.75971 286.45 7.25726 299.009 28.722C311.15 50.686 293.148 92.1179 277.659 125.563C262.588 159.507 250.447 184.965 236.214 213.918C222.399 242.87 206.49 275.317 183.884 285.8C160.859 296.283 131.554 284.802 99.3193 276.815C67.0842 268.828 31.9187 264.834 19.7782 241.373C7.63774 217.412 18.1037 173.984 14.3359 134.049C10.5682 93.6155 -7.4332 56.6761 3.45137 38.7056C14.3359 20.7351 54.1065 21.7335 82.1552 17.2409C110.204 13.2474 126.112 4.76136 143.695 1.26709C161.278 -1.72799 180.535 1.26709 211.933 3.26381Z" fill="#83D5C4"/>
<g opacity="0.9">
<path d="M70.0657 63.2621C69.1632 56.1394 74.2057 49.6336 81.3285 48.7311L158.933 38.8981C162.952 38.3889 166.978 39.7823 169.823 42.6667L191.538 64.6861C193.541 66.717 194.821 69.3504 195.179 72.1802L208.934 180.738C209.837 187.861 204.794 194.366 197.671 195.269L101.441 207.462C94.318 208.365 87.8123 203.322 86.9098 196.199L70.0657 63.2621Z" fill="#F5FBF7" stroke="#00201B" stroke-width="4"/>
<path d="M78.0661 50.1525L158.643 39.9428C160.617 39.6927 162.586 40.437 163.901 41.93L180.635 60.9341C181.428 61.8353 181.933 62.9538 182.084 64.1451L196.797 180.26C197.213 183.547 194.886 186.55 191.598 186.966L102.874 198.208C99.5864 198.625 96.5837 196.298 96.1672 193.01L78.0661 50.1525Z" fill="#CDE8E0" stroke="#00201B" stroke-width="4"/>
<path d="M100.663 113.817L145.83 108.094M102.186 125.836L147.353 120.113M103.492 136.139L139.546 131.57L175.6 127.002M156.466 118.959L174.295 116.7M130.433 132.725L166.488 128.156M154.943 106.939L172.772 104.68M104.507 144.151L135.411 140.236M105.45 151.592L141.9 146.973M140.957 139.533L176.616 135.015M106.32 158.46L178.429 149.323" stroke="#026B5D" stroke-width="3" stroke-linecap="round"/>
<path d="M162.117 176.59L184.304 173.779" stroke="#446278" stroke-width="3" stroke-linecap="round"/>
<rect x="97.6373" y="84.6325" width="18.6667" height="18.6667" rx="2" transform="rotate(-7.2213 97.6373 84.6325)" fill="#9FF2E0"/>
<rect x="97.6373" y="84.6325" width="18.6667" height="18.6667" rx="2" transform="rotate(-7.2213 97.6373 84.6325)" stroke="#00201B" stroke-width="1.33333"/>
<path d="M114.572 92.1554C114.488 92.0438 114.383 91.9501 114.262 91.8798C114.142 91.8094 114.008 91.7639 113.87 91.7458C113.539 91.7033 113.204 91.7015 112.873 91.7404C112.898 90.9761 112.747 90.2164 112.429 89.5206C112.316 89.2765 112.116 89.0833 111.868 88.9788C111.619 88.8743 111.341 88.8659 111.087 88.9552C110.609 89.1261 110.161 89.3726 109.761 89.6852C109.332 89.0901 108.783 88.5911 108.15 88.2202C107.948 88.1057 107.714 88.0597 107.483 88.0889C107.253 88.1181 107.038 88.2211 106.87 88.3824C106.35 88.8994 105.943 89.5195 105.676 90.2029C105.211 89.9999 104.716 89.8726 104.211 89.826C103.942 89.8029 103.675 89.8805 103.461 90.0436C103.247 90.2068 103.101 90.4439 103.052 90.7087C102.919 91.4616 102.961 92.2353 103.176 92.9691C102.845 93.014 102.521 93.0993 102.211 93.2231C102.081 93.2752 101.963 93.3525 101.864 93.4507C101.765 93.5489 101.686 93.6659 101.633 93.7949C101.577 93.9262 101.548 94.0671 101.548 94.2096C101.547 94.3521 101.575 94.4933 101.63 94.625C101.908 95.3029 102.656 96.563 104.534 97.385C106.388 98.1981 107.914 98.0048 108.731 97.9013C109.548 97.7977 111.065 97.6055 112.658 96.3557C114.272 95.0912 114.681 93.6844 114.782 92.9585C114.802 92.8175 114.794 92.6738 114.758 92.5359C114.722 92.3981 114.659 92.2687 114.572 92.1554ZM105.052 96.2025C103.773 95.6427 103.183 94.8607 102.919 94.3402C103.17 94.2668 103.43 94.2255 103.691 94.2174C103.861 94.5264 104.054 94.8224 104.267 95.1032C104.624 95.5726 105.035 95.9993 105.49 96.3746C105.346 96.3251 105.2 96.2677 105.052 96.2025ZM105.676 94.7805C105.544 94.6347 105.416 94.4883 105.293 94.3256C104.275 92.9762 104.206 91.8057 104.293 91.1347C104.655 91.193 105.007 91.3049 105.337 91.4667C105.249 92.0751 105.245 92.6927 105.326 93.302C105.387 93.8063 105.505 94.3022 105.676 94.7805ZM108.546 96.4761C107.973 96.1114 106.862 95.157 106.606 93.1383C106.353 91.1424 107.176 89.9391 107.653 89.4246C108.243 89.804 109.34 90.764 109.593 92.7598C109.848 94.7791 109.01 95.9816 108.546 96.4777L108.546 96.4761ZM110.903 94.1182C110.949 93.6123 110.939 93.1029 110.873 92.5992C110.799 91.989 110.641 91.3918 110.404 90.8247C110.683 90.5856 110.996 90.3892 111.333 90.2421C111.582 90.8711 111.808 92.0244 111.157 93.5826C111.081 93.7684 110.994 93.9468 110.903 94.1182ZM111.863 95.3395C111.737 95.4384 111.611 95.5291 111.487 95.6126C111.832 95.1362 112.122 94.6217 112.35 94.0791C112.486 93.754 112.599 93.4193 112.686 93.0778C112.941 93.0203 113.203 92.9955 113.465 93.004C113.337 93.5741 112.961 94.4785 111.862 95.3396L111.863 95.3395Z" fill="#00201B"/>
<path d="M164.641 69.4227L160.995 40.6528C160.856 39.557 161.632 38.5561 162.728 38.4172L163.558 38.3121C164.158 38.236 164.761 38.4361 165.197 38.8564L191.996 64.6926C193.206 65.8584 192.526 67.9054 190.86 68.1166L166.876 71.1555C165.78 71.2943 164.779 70.5186 164.641 69.4227Z" fill="#00201B" stroke="#00201B"/>
</g>
<g opacity="0.9">
<path d="M108.942 51.8744C110.405 44.8454 117.289 40.3331 124.318 41.796L200.902 57.735C204.868 58.5604 208.223 61.1876 209.975 64.8403L223.349 92.7247C224.582 95.2966 224.936 98.2029 224.354 100.995L202.058 208.126C200.595 215.155 193.711 219.667 186.682 218.204L91.7168 198.439C84.6877 196.977 80.1755 190.092 81.6384 183.063L108.942 51.8744Z" fill="#F5FBF7" stroke="#00201B" stroke-width="4"/>
<path d="M120.771 42.0792L200.288 58.6287C202.236 59.034 203.856 60.3783 204.614 62.2176L214.258 85.6307C214.715 86.741 214.829 87.9629 214.584 89.1385L190.736 203.726C190.061 206.97 186.883 209.053 183.639 208.378L96.0813 190.155C92.8371 189.48 90.7545 186.302 91.4297 183.058L120.771 42.0792Z" fill="#CDE8E0" stroke="#00201B" stroke-width="4"/>
<path d="M121.435 109.632L166.009 118.909M118.967 121.493L163.54 130.77M116.851 131.66L152.431 139.065L188.012 146.47M172.533 132.641L190.128 136.303M143.438 137.193L179.019 144.598M175.001 120.78L192.596 124.442M115.205 139.567L145.703 145.914M113.677 146.91L149.648 154.396M151.176 147.054L186.366 154.377M112.266 153.688L183.427 168.498" stroke="#026B5D" stroke-width="3" stroke-linecap="round"/>
<path d="M159.134 188.978L181.03 193.535" stroke="#446278" stroke-width="3" stroke-linecap="round"/>
<rect x="128.065" y="81.0497" width="18.6667" height="18.6667" rx="2" transform="rotate(11.7568 128.065 81.0497)" fill="#9FF2E0"/>
<rect x="128.065" y="81.0497" width="18.6667" height="18.6667" rx="2" transform="rotate(11.7568 128.065 81.0497)" stroke="#00201B" stroke-width="1.33333"/>
<path d="M141.633 93.671C141.59 93.5382 141.521 93.4153 141.43 93.3096C141.338 93.2039 141.227 93.1174 141.102 93.0553C140.803 92.9076 140.487 92.797 140.161 92.726C140.434 92.0115 140.537 91.2437 140.463 90.4825C140.436 90.2148 140.309 89.967 140.108 89.7875C139.908 89.608 139.647 89.5096 139.378 89.5115C138.87 89.5176 138.367 89.605 137.887 89.7705C137.675 89.0682 137.318 88.4179 136.84 87.8613C136.686 87.6872 136.479 87.5676 136.252 87.5202C136.024 87.4728 135.787 87.5002 135.577 87.5984C134.916 87.918 134.33 88.372 133.855 88.9314C133.481 88.5882 133.055 88.307 132.592 88.0986C132.346 87.9895 132.068 87.9759 131.813 88.0606C131.557 88.1453 131.342 88.3221 131.21 88.5566C130.838 89.2251 130.627 89.9705 130.592 90.7344C130.264 90.6692 129.93 90.6444 129.596 90.6606C129.457 90.6677 129.32 90.7026 129.194 90.7631C129.069 90.8237 128.956 90.9088 128.864 91.0134C128.769 91.1195 128.695 91.2434 128.648 91.378C128.602 91.5125 128.582 91.6551 128.591 91.7973C128.633 92.5289 128.931 93.9636 130.44 95.3518C131.929 96.7238 133.434 97.0371 134.241 97.2049C135.047 97.3728 136.544 97.6843 138.456 97.0203C140.394 96.3494 141.239 95.1524 141.57 94.4986C141.635 94.3717 141.674 94.2332 141.684 94.0911C141.695 93.949 141.678 93.8062 141.633 93.671ZM131.314 94.402C130.287 93.4567 129.983 92.5253 129.903 91.9474C130.164 91.9596 130.423 92.005 130.673 92.0825C130.733 92.4299 130.819 92.7724 130.929 93.1072C131.114 93.6674 131.364 94.2042 131.672 94.7072C131.552 94.6135 131.433 94.5118 131.314 94.402ZM132.366 93.2602C132.289 93.0793 132.215 92.8993 132.152 92.7055C131.629 91.0984 131.944 89.9692 132.244 89.3627C132.568 89.5359 132.865 89.7562 133.124 90.0165C132.843 90.5631 132.638 91.1458 132.516 91.7483C132.411 92.2452 132.36 92.7523 132.366 93.2602ZM134.529 95.7971C134.106 95.2659 133.365 94.0019 133.78 92.0097C134.19 90.0401 135.359 89.1698 135.978 88.8383C136.412 89.3889 137.137 90.6535 136.727 92.6231C136.313 94.6159 135.129 95.4804 134.529 95.7987L134.529 95.7971ZM137.525 94.3338C137.733 93.8705 137.889 93.3854 137.99 92.8876C138.119 92.2865 138.164 91.6706 138.124 91.0572C138.466 90.9218 138.826 90.8379 139.192 90.8082C139.223 91.4841 139.062 92.6482 137.939 93.9099C137.807 94.0608 137.666 94.2013 137.525 94.3338ZM138.035 95.8009C137.884 95.8534 137.735 95.8983 137.591 95.9368C138.072 95.5987 138.514 95.2063 138.906 94.7673C139.14 94.5043 139.356 94.2244 139.549 93.9298C139.81 93.9586 140.065 94.0202 140.31 94.1133C140.003 94.6108 139.353 95.3437 138.034 95.8006L138.035 95.8009Z" fill="#00201B"/>
<path d="M196.373 88.4566L202.282 60.0649C202.507 58.9835 203.566 58.2894 204.647 58.5144L205.466 58.6848C206.059 58.8082 206.564 59.1935 206.839 59.7327L223.78 92.8798C224.544 94.3756 223.236 96.0903 221.591 95.748L197.923 90.8221C196.842 90.5971 196.148 89.538 196.373 88.4566Z" fill="#00201B" stroke="#00201B"/>
</g>
<path d="M90 59C90 51.8203 95.8203 46 103 46H181.225C185.276 46 189.095 47.8886 191.555 51.1077L210.33 75.682C212.062 77.9486 213 80.7219 213 83.5744V193C213 200.18 207.18 206 200 206H103C95.8203 206 90 200.18 90 193V59Z" fill="#F5FBF7" stroke="#00201B" stroke-width="4"/>
<path d="M99.585 47H180.806C182.796 47 184.656 47.986 185.772 49.6323L199.985 70.5892C200.659 71.583 201.019 72.7561 201.019 73.9569V191C201.019 194.314 198.333 197 195.019 197H105.585C102.271 197 99.585 194.314 99.585 191V47Z" fill="#CDE8E0" stroke="#00201B" stroke-width="4"/>
<path d="M114 113H159.528M114 125.115H159.528M114 135.5H150.343H186.686M168.714 125.115H186.686M141.157 135.5H177.5M168.714 113H186.686M114 143.577H145.151M114 151.077H150.742M150.742 143.577H186.686M114 158H186.686" stroke="#026B5D" stroke-width="3" stroke-linecap="round"/>
<path d="M167.075 183H189.44" stroke="#446278" stroke-width="3" stroke-linecap="round"/>
<rect x="114.667" y="83.6667" width="18.6667" height="18.6667" rx="2" fill="#9FF2E0"/>
<rect x="114.667" y="83.6667" width="18.6667" height="18.6667" rx="2" stroke="#00201B" stroke-width="1.33333"/>
<path d="M130.522 93.2587C130.452 93.1374 130.36 93.0312 130.249 92.9463C130.138 92.8613 130.012 92.7994 129.876 92.7641C129.554 92.6803 129.222 92.6365 128.888 92.6334C129.009 91.8784 128.954 91.1055 128.727 90.3754C128.645 90.1189 128.471 89.9022 128.238 89.7673C128.005 89.6324 127.73 89.5891 127.467 89.6458C126.971 89.7553 126.496 89.9435 126.059 90.2033C125.708 89.5589 125.227 88.9949 124.645 88.5475C124.459 88.4084 124.233 88.3333 124 88.3333C123.768 88.3333 123.541 88.4084 123.355 88.5475C122.774 88.9949 122.292 89.5589 121.941 90.2033C121.505 89.9435 121.031 89.7551 120.535 89.6453C120.272 89.5886 119.997 89.632 119.764 89.767C119.531 89.9019 119.357 90.1188 119.275 90.3754C119.048 91.1055 118.993 91.8784 119.114 92.6334C118.78 92.6363 118.447 92.6802 118.124 92.7641C117.989 92.7994 117.862 92.8613 117.752 92.9463C117.641 93.0312 117.548 93.1374 117.479 93.2587C117.407 93.3819 117.361 93.5181 117.342 93.6594C117.324 93.8007 117.334 93.9443 117.371 94.0818C117.562 94.7893 118.145 96.1334 119.906 97.1849C121.643 98.2247 123.181 98.2247 124.005 98.2247C124.828 98.2247 126.357 98.2247 128.094 97.1849C129.854 96.1334 130.438 94.7893 130.629 94.0818C130.666 93.9443 130.676 93.8008 130.658 93.6595C130.639 93.5182 130.593 93.3819 130.522 93.2587ZM120.568 96.0769C119.37 95.3608 118.883 94.5108 118.686 93.9613C118.945 93.92 119.207 93.9117 119.468 93.9366C119.598 94.2645 119.751 94.5823 119.928 94.8877C120.223 95.3983 120.577 95.8732 120.981 96.3027C120.844 96.2355 120.707 96.1602 120.568 96.0769ZM121.366 94.7447C121.253 94.5834 121.144 94.4221 121.043 94.2452C120.203 92.7786 120.282 91.6087 120.452 90.9539C120.804 91.0574 121.14 91.2126 121.447 91.4146C121.283 92.007 121.201 92.6193 121.205 93.2339C121.202 93.7419 121.256 94.2486 121.366 94.7447ZM124 96.7876C123.478 96.3538 122.495 95.2672 122.495 93.2323C122.495 91.2205 123.463 90.1302 124 89.6797C124.538 90.1302 125.506 91.2205 125.506 93.2323C125.506 95.2678 124.523 96.3554 124 96.7893V96.7876ZM126.635 94.7447C126.744 94.2486 126.798 93.7419 126.796 93.2339C126.799 92.6193 126.718 92.007 126.554 91.4146C126.861 91.2124 127.196 91.057 127.549 90.9533C127.717 91.6087 127.796 92.7813 126.954 94.2452C126.855 94.4199 126.746 94.5861 126.635 94.7447ZM127.433 96.0769C127.296 96.1592 127.16 96.2334 127.026 96.3006C127.429 95.8714 127.781 95.3974 128.075 94.8877C128.251 94.5823 128.405 94.2645 128.535 93.9366C128.795 93.9117 129.058 93.92 129.316 93.9613C129.118 94.5108 128.631 95.3608 127.432 96.0769H127.433Z" fill="#00201B"/>
<path d="M183.05 77V48C183.05 46.8954 183.946 46 185.05 46H185.887C186.492 46 187.065 46.2743 187.445 46.7461L210.784 75.7461C211.837 77.0546 210.905 79 209.226 79H185.05C183.946 79 183.05 78.1046 183.05 77Z" fill="#00201B" stroke="#00201B"/>
</svg>
